v 0.0314158 0.455383 0.0496078
v 0.074855 0.475553 0.0496078
l 1 2
v 0.0728445 0.474407 -0.05
v 0.0256277 0.450581 -0.05
l 3 4
v 0.00918233 0.425923 0.0496078
v 0.0314158 0.455383 0.0496078
l 5 6
v 0.0256277 0.450581 -0.05
v 0.00718275 0.422011 -0.05
l 7 8
v -0.0138098 0.429854 0.0496078
v 0.00918233 0.425923 0.0496078
l 9 10
v 0.00718275 0.422011 -0.05
v -0.0205272 0.432015 -0.05
l 11 12
v -0.0474693 0.439872 0.0496078
v -0.0138098 0.429854 0.0496078
l 13 14
v -0.051069 0.430461 -0.05
v -0.0474693 0.439872 0.0496078
l 15 16
v -0.0205272 0.432015 -0.05
v -0.051069 0.430461 -0.05
l 17 18
v -0.0518916 0.426043 0.0496078
v -0.0474693 0.439872 0.0496078
l 19 20
v -0.0729939 0.411929 0.0496078
v -0.0518916 0.426043 0.0496078
l 21 22
v -0.0743943 0.411507 -0.05
v -0.0729939 0.411929 0.0496078
l 23 24
v -0.051069 0.430461 -0.05
v -0.0743943 0.411507 -0.05
l 25 26
v -0.0679535 0.398054 0.0496078
v -0.0729939 0.411929 0.0496078
l 27 28
v -0.0743943 0.411507 -0.05
v -0.0673356 0.39168 -0.05
l 29 30
v -0.0660822 0.387688 0.0496078
v -0.0679535 0.398054 0.0496078
l 31 32
v -0.0861701 0.36141 0.0496078
v -0.0660822 0.387688 0.0496078
l 33 34
v -0.0673356 0.39168 -0.05
v -0.0883426 0.360706 -0.05
l 35 36
v -0.0883426 0.360706 -0.05
v -0.0954762 0.337411 -0.05
l 37 38
v -0.104474 0.264982 0.0496078
v -0.0861701 0.36141 0.0496078
l 39 40
v -0.0954762 0.337411 -0.05
v -0.104043 0.269414 -0.05
l 41 42
v -0.104043 0.269414 -0.05
v -0.112141 0.246923 -0.05
l 43 44
v -0.120995 0.247805 0.0496078
v -0.104474 0.264982 0.0496078
l 45 46
v -0.112141 0.246923 -0.05
v -0.149533 0.252673 -0.05
l 47 48
v -0.149533 0.252673 -0.05
v -0.155902 0.254839 0.0496078
l 49 50
v -0.155902 0.254839 0.0496078
v -0.120995 0.247805 0.0496078
l 51 52
v -0.174113 0.246048 0.0496078
v -0.155902 0.254839 0.0496078
l 53 54
v -0.173479 0.243611 -0.05
v -0.174113 0.246048 0.0496078
l 55 56
v -0.149533 0.252673 -0.05
v -0.173479 0.243611 -0.05
l 57 58
v -0.164568 0.231002 0.0496078
v -0.174113 0.246048 0.0496078
l 59 60
v -0.173479 0.243611 -0.05
v -0.149962 0.219339 -0.05
l 61 62
v -0.108522 0.202838 0.0496078
v -0.164568 0.231002 0.0496078
l 63 64
v -0.149962 0.219339 -0.05
v -0.101851 0.201814 -0.05
l 65 66
v -0.0662541 0.190106 0.0496078
v -0.108522 0.202838 0.0496078
l 67 68
v -0.101851 0.201814 -0.05
v -0.0662541 0.190106 -0.05
l 69 70
v -0.0837132 0.152588 0.0496078
v -0.0662541 0.190106 0.0496078
l 71 72
v -0.0662541 0.190106 -0.05
v -0.0909878 0.139431 -0.05
l 73 74
v -0.0975231 0.128369 0.0496078
v -0.0837132 0.152588 0.0496078
l 75 76
v -0.122751 0.0992947 0.0496078
v -0.0975231 0.128369 0.0496078
l 77 78
v -0.0909878 0.139431 -0.05
v -0.114722 0.10287 -0.05
l 79 80
v -0.114722 0.10287 -0.05
v -0.133499 0.0983703 -0.05
l 81 82
v -0.146151 0.11174 0.0496078
v -0.122751 0.0992947 0.0496078
l 83 84
v -0.146436 0.112329 -0.05
v -0.146151 0.11174 0.0496078
l 85 86
v -0.133499 0.0983703 -0.05
v -0.146436 0.112329 -0.05
l 87 88
v -0.171412 0.112683 0.0496078
v -0.146151 0.11174 0.0496078
l 89 90
v -0.171412 0.112683 -0.05
v -0.171412 0.112683 0.0496078
l 91 92
v -0.146436 0.112329 -0.05
v -0.171412 0.112683 -0.05
l 93 94
v -0.209654 0.0752493 0.0496078
v -0.171412 0.112683 0.0496078
l 95 96
v -0.171412 0.112683 -0.05
v -0.202264 0.0831064 -0.05
l 97 98
v -0.202264 0.0831064 -0.05
v -0.22907 0.0538104 -0.05
l 99 100
v -0.237796 0.0339968 0.0496078
v -0.209654 0.0752493 0.0496078
l 101 102
v -0.22907 0.0538104 -0.05
v -0.23402 0.0331993 -0.05
l 103 104
v -0.23402 0.0331993 -0.05
v -0.245727 0.032764 -0.05
l 105 106
v -0.263809 0.0221607 0.0496078
v -0.237796 0.0339968 0.0496078
l 107 108
v -0.245727 0.032764 -0.05
v -0.279155 0.00858659 -0.05
l 109 110
v -0.313993 -0.0290518 0.0496078
v -0.263809 0.0221607 0.0496078
l 111 112
v -0.319543 -0.0453521 -0.05
v -0.313993 -0.0290518 0.0496078
l 113 114
v -0.279155 0.00858659 -0.05
v -0.319543 -0.0453521 -0.05
l 115 116
v -0.320701 -0.0843784 0.0496078
v -0.313993 -0.0290518 0.0496078
l 117 118
v -0.319543 -0.0453521 -0.05
v -0.316958 -0.103734 -0.05
l 119 120
v -0.30399 -0.130648 0.0496078
v -0.320701 -0.0843784 0.0496078
l 121 122
v -0.316958 -0.103734 -0.05
v -0.305112 -0.130577 -0.05
l 123 124
v -0.358845 -0.134208 0.0496078
v -0.30399 -0.130648 0.0496078
l 125 126
v -0.305112 -0.130577 -0.05
v -0.380079 -0.13727 -0.05
l 127 128
v -0.427376 -0.148608 0.0496078
v -0.358845 -0.134208 0.0496078
l 129 130
v -0.380079 -0.13727 -0.05
v -0.452478 -0.162006 -0.05
l 131 132
v -0.472738 -0.176752 0.0496078
v -0.427376 -0.148608 0.0496078
l 133 134
v -0.513895 -0.223947 0.0496078
v -0.472738 -0.176752 0.0496078
l 135 136
v -0.452478 -0.162006 -0.05
v -0.51663 -0.22682 -0.05
l 137 138
v -0.530764 -0.267076 0.0496078
v -0.513895 -0.223947 0.0496078
l 139 140
v -0.51663 -0.22682 -0.05
v -0.532297 -0.279641 -0.05
l 141 142
v -0.528908 -0.366624 0.0496078
v -0.530764 -0.267076 0.0496078
l 143 144
v -0.532297 -0.279641 -0.05
v -0.524269 -0.392772 -0.05
l 145 146
v -0.507696 -0.45053 0.0496078
v -0.528908 -0.366624 0.0496078
l 147 148
v -0.524269 -0.392772 -0.05
v -0.507932 -0.451571 -0.05
l 149 150
v -0.489089 -0.476332 0.0496078
v -0.507696 -0.45053 0.0496078
l 151 152
v -0.507932 -0.451571 -0.05
v -0.491409 -0.475452 -0.05
l 153 154
v -0.491409 -0.475452 -0.05
v -0.461046 -0.511091 -0.05
l 155 156
v -0.458803 -0.515557 0.0496078
v -0.489089 -0.476332 0.0496078
l 157 158
v -0.419828 -0.548183 0.0496078
v -0.458803 -0.515557 0.0496078
l 159 160
v -0.461046 -0.511091 -0.05
v -0.397273 -0.56767 -0.05
l 161 162
v -0.380713 -0.581423 0.0496078
v -0.419828 -0.548183 0.0496078
l 163 164
v -0.397273 -0.56767 -0.05
v -0.336276 -0.605251 -0.05
l 165 166
v -0.335654 -0.605823 0.0496078
v -0.380713 -0.581423 0.0496078
l 167 168
v -0.277108 -0.616811 0.0496078
v -0.335654 -0.605823 0.0496078
l 169 170
v -0.336276 -0.605251 -0.05
v -0.273006 -0.616979 -0.05
l 171 172
v -0.209884 -0.603231 0.0496078
v -0.277108 -0.616811 0.0496078
l 173 174
v -0.273006 -0.616979 -0.05
v -0.209675 -0.603683 -0.05
l 175 176
v -0.209675 -0.603683 -0.05
v -0.180579 -0.587008 -0.05
l 177 178
v -0.159689 -0.566634 0.0496078
v -0.209884 -0.603231 0.0496078
l 179 180
v -0.180579 -0.587008 -0.05
v -0.156425 -0.563332 -0.05
l 181 182
v -0.112755 -0.552225 0.0496078
v -0.159689 -0.566634 0.0496078
l 183 184
v -0.156425 -0.563332 -0.05
v -0.0869633 -0.54391 -0.05
l 185 186
v -0.0653857 -0.534317 0.0496078
v -0.112755 -0.552225 0.0496078
l 187 188
v -0.0869633 -0.54391 -0.05
v -0.0510075 -0.52576 -0.05
l 189 190
v -0.0287502 -0.526316 0.0496078
v -0.0653857 -0.534317 0.0496078
l 191 192
v -0.0510075 -0.52576 -0.05
v -0.0170871 -0.528621 -0.05
l 193 194
v 0.0168239 -0.571809 0.0496078
v -0.0287502 -0.526316 0.0496078
l 195 196
v -0.0170871 -0.528621 -0.05
v 0.023693 -0.578129 -0.05
l 197 198
v 0.0472667 -0.599254 0.0496078
v 0.0168239 -0.571809 0.0496078
l 199 200
v 0.023693 -0.578129 -0.05
v 0.0458707 -0.596831 -0.05
l 201 202
v 0.0867463 -0.615335 0.0496078
v 0.0472667 -0.599254 0.0496078
l 203 204
v 0.0458707 -0.596831 -0.05
v 0.0845908 -0.615344 -0.05
l 205 206
v 0.0845908 -0.615344 -0.05
v 0.132121 -0.620296 -0.05
l 207 208
v 0.145531 -0.61678 0.0496078
v 0.0867463 -0.615335 0.0496078
l 209 210
v 0.132121 -0.620296 -0.05
v 0.187434 -0.592462 -0.05
l 211 212
v 0.200076 -0.583252 0.0496078
v 0.145531 -0.61678 0.0496078
l 213 214
v 0.187434 -0.592462 -0.05
v 0.212606 -0.571699 -0.05
l 215 216
v 0.222515 -0.549447 0.0496078
v 0.200076 -0.583252 0.0496078
l 217 218
v 0.212606 -0.571699 -0.05
v 0.220509 -0.557705 -0.05
l 219 220
v 0.220509 -0.557705 -0.05
v 0.231286 -0.532142 -0.05
l 221 222
v 0.238521 -0.525079 0.0496078
v 0.222515 -0.549447 0.0496078
l 223 224
v 0.231286 -0.532142 -0.05
v 0.244925 -0.528833 -0.05
l 225 226
v 0.244925 -0.528833 -0.05
v 0.251005 -0.531423 0.0496078
l 227 228
v 0.251005 -0.531423 0.0496078
v 0.238521 -0.525079 0.0496078
l 229 230
v 0.244925 -0.528833 -0.05
v 0.280006 -0.524911 -0.05
l 231 232
v 0.295976 -0.519756 0.0496078
v 0.251005 -0.531423 0.0496078
l 233 234
v 0.280006 -0.524911 -0.05
v 0.334509 -0.490588 -0.05
l 235 236
v 0.346315 -0.475829 0.0496078
v 0.295976 -0.519756 0.0496078
l 237 238
v 0.334509 -0.490588 -0.05
v 0.372252 -0.423439 -0.05
l 239 240
v 0.373373 -0.421103 0.0496078
v 0.346315 -0.475829 0.0496078
l 241 242
v 0.388517 -0.381846 0.0496078
v 0.373373 -0.421103 0.0496078
l 243 244
v 0.372252 -0.423439 -0.05
v 0.387673 -0.383594 -0.05
l 245 246
v 0.387673 -0.383594 -0.05
v 0.408575 -0.340322 -0.05
l 247 248
v 0.412678 -0.329191 0.0496078
v 0.388517 -0.381846 0.0496078
l 249 250
v 0.408575 -0.340322 -0.05
v 0.425972 -0.299877 -0.05
l 251 252
v 0.431131 -0.293193 0.0496078
v 0.412678 -0.329191 0.0496078
l 253 254
v 0.425972 -0.299877 -0.05
v 0.440463 -0.255412 -0.05
l 255 256
v 0.440463 -0.255412 -0.05
v 0.440134 -0.25183 0.0496078
l 257 258
v 0.440134 -0.25183 0.0496078
v 0.431131 -0.293193 0.0496078
l 259 260
v 0.440463 -0.255412 -0.05
v 0.428937 -0.223536 -0.05
l 261 262
v 0.42929 -0.225096 0.0496078
v 0.440134 -0.25183 0.0496078
l 263 264
v 0.419288 -0.170765 0.0496078
v 0.42929 -0.225096 0.0496078
l 265 266
v 0.428937 -0.223536 -0.05
v 0.41798 -0.161077 -0.05
l 267 268
v 0.396161 -0.110315 0.0496078
v 0.419288 -0.170765 0.0496078
l 269 270
v 0.41798 -0.161077 -0.05
v 0.397458 -0.112752 -0.05
l 271 272
v 0.349855 -0.0574069 0.0496078
v 0.396161 -0.110315 0.0496078
l 273 274
v 0.350037 -0.0573982 -0.05
v 0.349855 -0.0574069 0.0496078
l 275 276
v 0.397458 -0.112752 -0.05
v 0.350037 -0.0573982 -0.05
l 277 278
v 0.350037 -0.0573982 -0.05
v 0.30578 -0.0428141 -0.05
l 279 280
v 0.297284 -0.0417335 0.0496078
v 0.349855 -0.0574069 0.0496078
l 281 282
v 0.30578 -0.0428141 -0.05
v 0.26375 -0.0398466 -0.05
l 283 284
v 0.261683 -0.0403183 0.0496078
v 0.297284 -0.0417335 0.0496078
l 285 286
v 0.247427 -0.0121832 0.0496078
v 0.261683 -0.0403183 0.0496078
l 287 288
v 0.26375 -0.0398466 -0.05
v 0.247438 -0.0123483 -0.05
l 289 290
v 0.236193 0.00756122 0.0496078
v 0.247427 -0.0121832 0.0496078
l 291 292
v 0.247438 -0.0123483 -0.05
v 0.234076 0.00913748 -0.05
l 293 294
v 0.204791 0.0414033 0.0496078
v 0.236193 0.00756122 0.0496078
l 295 296
v 0.234076 0.00913748 -0.05
v 0.204278 0.0418526 -0.05
l 297 298
v 0.165419 0.066269 0.0496078
v 0.204791 0.0414033 0.0496078
l 299 300
v 0.204278 0.0418526 -0.05
v 0.159376 0.0671704 -0.05
l 301 302
v 0.112575 0.0721137 0.0496078
v 0.165419 0.066269 0.0496078
l 303 304
v 0.159376 0.0671704 -0.05
v 0.10237 0.0752747 -0.05
l 305 306
v 0.0918899 0.0831041 0.0496078
v 0.112575 0.0721137 0.0496078
l 307 308
v 0.10237 0.0752747 -0.05
v 0.0860443 0.0892837 -0.05
l 309 310
v 0.0733144 0.110433 0.0496078
v 0.0918899 0.0831041 0.0496078
l 311 312
v 0.0860443 0.0892837 -0.05
v 0.0724729 0.110174 -0.05
l 313 314
v 0.0744419 0.125153 0.0496078
v 0.0733144 0.110433 0.0496078
l 315 316
v 0.0724729 0.110174 -0.05
v 0.108391 0.150605 -0.05
l 317 318
v 0.108925 0.150079 0.0496078
v 0.0744419 0.125153 0.0496078
l 319 320
v 0.144389 0.190831 0.0496078
v 0.108925 0.150079 0.0496078
l 321 322
v 0.108391 0.150605 -0.05
v 0.146134 0.193866 -0.05
l 323 324
v 0.152597 0.214409 0.0496078
v 0.144389 0.190831 0.0496078
l 325 326
v 0.152232 0.217322 -0.05
v 0.152597 0.214409 0.0496078
l 327 328
v 0.146134 0.193866 -0.05
v 0.152232 0.217322 -0.05
l 329 330
v 0.0781583 0.218258 0.0496078
v 0.152597 0.214409 0.0496078
l 331 332
v 0.152232 0.217322 -0.05
v 0.0958558 0.216647 -0.05
l 333 334
v 0.0958558 0.216647 -0.05
v 0.0395327 0.222906 -0.05
l 335 336
v 0.0373446 0.223152 0.0496078
v 0.0781583 0.218258 0.0496078
l 337 338
v 0.066278 0.261505 0.0496078
v 0.0373446 0.223152 0.0496078
l 339 340
v 0.0395327 0.222906 -0.05
v 0.0747635 0.268486 -0.05
l 341 342
v 0.0939586 0.273126 0.0496078
v 0.066278 0.261505 0.0496078
l 343 344
v 0.0978801 0.275181 -0.05
v 0.0939586 0.273126 0.0496078
l 345 346
v 0.0747635 0.268486 -0.05
v 0.0978801 0.275181 -0.05
l 347 348
v 0.09309 0.298574 0.0496078
v 0.0939586 0.273126 0.0496078
l 349 350
v 0.0978801 0.275181 -0.05
v 0.0885084 0.298125 -0.05
l 351 352
v 0.0885084 0.298125 -0.05
v 0.109178 0.300469 -0.05
l 353 354
v 0.129445 0.293044 0.0496078
v 0.09309 0.298574 0.0496078
l 355 356
v 0.109178 0.300469 -0.05
v 0.147558 0.286713 -0.05
l 357 358
v 0.183181 0.281427 0.0496078
v 0.129445 0.293044 0.0496078
l 359 360
v 0.187217 0.287243 -0.05
v 0.183181 0.281427 0.0496078
l 361 362
v 0.147558 0.286713 -0.05
v 0.187217 0.287243 -0.05
l 363 364
v 0.187217 0.287243 -0.05
v 0.189326 0.294173 0.0496078
l 365 366
v 0.189326 0.294173 0.0496078
v 0.183181 0.281427 0.0496078
l 367 368
v 0.187217 0.287243 -0.05
v 0.183436 0.305558 -0.05
l 369 370
v 0.181301 0.305011 0.0496078
v 0.189326 0.294173 0.0496078
l 371 372
v 0.199338 0.319176 0.0496078
v 0.181301 0.305011 0.0496078
l 373 374
v 0.199814 0.321819 -0.05
v 0.199338 0.319176 0.0496078
l 375 376
v 0.183436 0.305558 -0.05
v 0.199814 0.321819 -0.05
l 377 378
v 0.167937 0.328014 0.0496078
v 0.199338 0.319176 0.0496078
l 379 380
v 0.199814 0.321819 -0.05
v 0.166362 0.328082 -0.05
l 381 382
v 0.145713 0.337369 0.0496078
v 0.167937 0.328014 0.0496078
l 383 384
v 0.166362 0.328082 -0.05
v 0.14475 0.338408 -0.05
l 385 386
v 0.14085 0.355608 0.0496078
v 0.145713 0.337369 0.0496078
l 387 388
v 0.14475 0.338408 -0.05
v 0.135452 0.361793 -0.05
l 389 390
v 0.108376 0.391528 0.0496078
v 0.14085 0.355608 0.0496078
l 391 392
v 0.135452 0.361793 -0.05
v 0.107305 0.39699 -0.05
l 393 394
v 0.115423 0.455537 0.0496078
v 0.108376 0.391528 0.0496078
l 395 396
v 0.107305 0.39699 -0.05
v 0.112886 0.464821 -0.05
l 397 398
v 0.112886 0.464821 -0.05
v 0.107806 0.475547 0.0496078
l 399 400
v 0.107806 0.475547 0.0496078
v 0.115423 0.455537 0.0496078
l 401 402
v 0.112886 0.464821 -0.05
v 0.0728445 0.474407 -0.05
l 403 404
v 0.074855 0.475553 0.0496078
v 0.107806 0.475547 0.0496078
l 405 406
