v 0.00718275 0.422011 -0.05
v 0.00918233 0.425923 0.0496078
l 1 2
v -0.051069 0.430461 -0.05
v -0.0518916 0.426043 0.0496078
l 3 4
v -0.0673356 0.39168 -0.05
v -0.0660822 0.387688 0.0496078
l 5 6
v -0.112141 0.246923 -0.05
v -0.120995 0.247805 0.0496078
l 7 8
v -0.0662541 0.190106 -0.05
v -0.0662541 0.190106 0.0496078
l 9 10
v -0.114722 0.10287 -0.05
v -0.122751 0.0992947 0.0496078
l 11 12
v -0.133499 0.0983703 -0.05
v -0.122751 0.0992947 0.0496078
l 13 14
v -0.23402 0.0331993 -0.05
v -0.237796 0.0339968 0.0496078
l 15 16
v -0.305112 -0.130577 -0.05
v -0.30399 -0.130648 0.0496078
l 17 18
v -0.0170871 -0.528621 -0.05
v -0.0287502 -0.526316 0.0496078
l 19 20
v 0.231286 -0.532142 -0.05
v 0.238521 -0.525079 0.0496078
l 21 22
v 0.244925 -0.528833 -0.05
v 0.238521 -0.525079 0.0496078
l 23 24
v 0.26375 -0.0398466 -0.05
v 0.261683 -0.0403183 0.0496078
l 25 26
v 0.0724729 0.110174 -0.05
v 0.0733144 0.110433 0.0496078
l 27 28
v 0.0724729 0.110174 -0.05
v 0.0744419 0.125153 0.0496078
l 29 30
v 0.0395327 0.222906 -0.05
v 0.0373446 0.223152 0.0496078
l 31 32
v 0.0885084 0.298125 -0.05
v 0.09309 0.298574 0.0496078
l 33 34
v 0.183436 0.305558 -0.05
v 0.181301 0.305011 0.0496078
l 35 36
v 0.14475 0.338408 -0.05
v 0.145713 0.337369 0.0496078
l 37 38
v 0.107305 0.39699 -0.05
v 0.108376 0.391528 0.0496078
l 39 40
