v 0.0728445 0.474407 -0.05
v 0.0256277 0.450581 -0.05
v -0.0474693 0.439872 0.0496078
v -0.0729939 0.411929 0.0496078
v -0.0743943 0.411507 -0.05
v -0.104474 0.264982 0.0496078
v -0.149533 0.252673 -0.05
v -0.155902 0.254839 0.0496078
v -0.174113 0.246048 0.0496078
v -0.173479 0.243611 -0.05
v -0.164568 0.231002 0.0496078
v -0.146151 0.11174 0.0496078
v -0.146436 0.112329 -0.05
v -0.171412 0.112683 0.0496078
v -0.171412 0.112683 -0.05
v -0.245727 0.032764 -0.05
v -0.313993 -0.0290518 0.0496078
v -0.319543 -0.0453521 -0.05
v -0.0510075 -0.52576 -0.05
v 0.132121 -0.620296 -0.05
v 0.145531 -0.61678 0.0496078
v 0.251005 -0.531423 0.0496078
v 0.440463 -0.255412 -0.05
v 0.440134 -0.25183 0.0496078
v 0.349855 -0.0574069 0.0496078
v 0.350037 -0.0573982 -0.05
v 0.10237 0.0752747 -0.05
v 0.152597 0.214409 0.0496078
v 0.152232 0.217322 -0.05
v 0.066278 0.261505 0.0496078
v 0.0747635 0.268486 -0.05
v 0.0939586 0.273126 0.0496078
v 0.0978801 0.275181 -0.05
v 0.183181 0.281427 0.0496078
v 0.187217 0.287243 -0.05
v 0.189326 0.294173 0.0496078
v 0.199338 0.319176 0.0496078
v 0.199814 0.321819 -0.05
v 0.112886 0.464821 -0.05
v 0.107806 0.475547 0.0496078
