v 0.00918233 0.425923 0.0496078
v 0.0314158 0.455383 0.0496078
l 1 2
v -0.0138098 0.429854 0.0496078
v 0.00918233 0.425923 0.0496078
l 3 4
v 0.00718275 0.422011 -0.05
v 0.00918233 0.425923 0.0496078
l 5 6
v 0.0256277 0.450581 -0.05
v 0.00718275 0.422011 -0.05
l 7 8
v 0.00718275 0.422011 -0.05
v -0.0205272 0.432015 -0.05
l 9 10
v 0.00718275 0.422011 -0.05
v 0.00918233 0.425923 0.0496078
l 11 12
v -0.051069 0.430461 -0.05
v -0.0474693 0.439872 0.0496078
l 13 14
v -0.0205272 0.432015 -0.05
v -0.051069 0.430461 -0.05
l 15 16
v -0.051069 0.430461 -0.05
v -0.0743943 0.411507 -0.05
l 17 18
v -0.051069 0.430461 -0.05
v -0.0518916 0.426043 0.0496078
l 19 20
v -0.0518916 0.426043 0.0496078
v -0.0474693 0.439872 0.0496078
l 21 22
v -0.0729939 0.411929 0.0496078
v -0.0518916 0.426043 0.0496078
l 23 24
v -0.051069 0.430461 -0.05
v -0.0518916 0.426043 0.0496078
l 25 26
v -0.0743943 0.411507 -0.05
v -0.0673356 0.39168 -0.05
l 27 28
v -0.0673356 0.39168 -0.05
v -0.0883426 0.360706 -0.05
l 29 30
v -0.0673356 0.39168 -0.05
v -0.0660822 0.387688 0.0496078
l 31 32
v -0.0660822 0.387688 0.0496078
v -0.0679535 0.398054 0.0496078
l 33 34
v -0.0861701 0.36141 0.0496078
v -0.0660822 0.387688 0.0496078
l 35 36
v -0.0673356 0.39168 -0.05
v -0.0660822 0.387688 0.0496078
l 37 38
v -0.104043 0.269414 -0.05
v -0.112141 0.246923 -0.05
l 39 40
v -0.112141 0.246923 -0.05
v -0.149533 0.252673 -0.05
l 41 42
v -0.112141 0.246923 -0.05
v -0.120995 0.247805 0.0496078
l 43 44
v -0.120995 0.247805 0.0496078
v -0.104474 0.264982 0.0496078
l 45 46
v -0.155902 0.254839 0.0496078
v -0.120995 0.247805 0.0496078
l 47 48
v -0.112141 0.246923 -0.05
v -0.120995 0.247805 0.0496078
l 49 50
v -0.0662541 0.190106 0.0496078
v -0.108522 0.202838 0.0496078
l 51 52
v -0.0837132 0.152588 0.0496078
v -0.0662541 0.190106 0.0496078
l 53 54
v -0.0662541 0.190106 -0.05
v -0.0662541 0.190106 0.0496078
l 55 56
v -0.101851 0.201814 -0.05
v -0.0662541 0.190106 -0.05
l 57 58
v -0.0662541 0.190106 -0.05
v -0.0909878 0.139431 -0.05
l 59 60
v -0.0662541 0.190106 -0.05
v -0.0662541 0.190106 0.0496078
l 61 62
v -0.122751 0.0992947 0.0496078
v -0.0975231 0.128369 0.0496078
l 63 64
v -0.146151 0.11174 0.0496078
v -0.122751 0.0992947 0.0496078
l 65 66
v -0.114722 0.10287 -0.05
v -0.122751 0.0992947 0.0496078
l 67 68
v -0.133499 0.0983703 -0.05
v -0.122751 0.0992947 0.0496078
l 69 70
v -0.0909878 0.139431 -0.05
v -0.114722 0.10287 -0.05
l 71 72
v -0.114722 0.10287 -0.05
v -0.133499 0.0983703 -0.05
l 73 74
v -0.114722 0.10287 -0.05
v -0.122751 0.0992947 0.0496078
l 75 76
v -0.114722 0.10287 -0.05
v -0.133499 0.0983703 -0.05
l 77 78
v -0.133499 0.0983703 -0.05
v -0.146436 0.112329 -0.05
l 79 80
v -0.133499 0.0983703 -0.05
v -0.122751 0.0992947 0.0496078
l 81 82
v -0.237796 0.0339968 0.0496078
v -0.209654 0.0752493 0.0496078
l 83 84
v -0.263809 0.0221607 0.0496078
v -0.237796 0.0339968 0.0496078
l 85 86
v -0.23402 0.0331993 -0.05
v -0.237796 0.0339968 0.0496078
l 87 88
v -0.22907 0.0538104 -0.05
v -0.23402 0.0331993 -0.05
l 89 90
v -0.23402 0.0331993 -0.05
v -0.245727 0.032764 -0.05
l 91 92
v -0.23402 0.0331993 -0.05
v -0.237796 0.0339968 0.0496078
l 93 94
v -0.30399 -0.130648 0.0496078
v -0.320701 -0.0843784 0.0496078
l 95 96
v -0.358845 -0.134208 0.0496078
v -0.30399 -0.130648 0.0496078
l 97 98
v -0.305112 -0.130577 -0.05
v -0.30399 -0.130648 0.0496078
l 99 100
v -0.316958 -0.103734 -0.05
v -0.305112 -0.130577 -0.05
l 101 102
v -0.305112 -0.130577 -0.05
v -0.380079 -0.13727 -0.05
l 103 104
v -0.305112 -0.130577 -0.05
v -0.30399 -0.130648 0.0496078
l 105 106
v -0.0287502 -0.526316 0.0496078
v -0.0653857 -0.534317 0.0496078
l 107 108
v 0.0168239 -0.571809 0.0496078
v -0.0287502 -0.526316 0.0496078
l 109 110
v -0.0170871 -0.528621 -0.05
v -0.0287502 -0.526316 0.0496078
l 111 112
v -0.0510075 -0.52576 -0.05
v -0.0170871 -0.528621 -0.05
l 113 114
v -0.0170871 -0.528621 -0.05
v 0.023693 -0.578129 -0.05
l 115 116
v -0.0170871 -0.528621 -0.05
v -0.0287502 -0.526316 0.0496078
l 117 118
v 0.220509 -0.557705 -0.05
v 0.231286 -0.532142 -0.05
l 119 120
v 0.231286 -0.532142 -0.05
v 0.244925 -0.528833 -0.05
l 121 122
v 0.231286 -0.532142 -0.05
v 0.238521 -0.525079 0.0496078
l 123 124
v 0.238521 -0.525079 0.0496078
v 0.222515 -0.549447 0.0496078
l 125 126
v 0.251005 -0.531423 0.0496078
v 0.238521 -0.525079 0.0496078
l 127 128
v 0.231286 -0.532142 -0.05
v 0.238521 -0.525079 0.0496078
l 129 130
v 0.244925 -0.528833 -0.05
v 0.238521 -0.525079 0.0496078
l 131 132
v 0.231286 -0.532142 -0.05
v 0.244925 -0.528833 -0.05
l 133 134
v 0.244925 -0.528833 -0.05
v 0.251005 -0.531423 0.0496078
l 135 136
v 0.244925 -0.528833 -0.05
v 0.280006 -0.524911 -0.05
l 137 138
v 0.244925 -0.528833 -0.05
v 0.238521 -0.525079 0.0496078
l 139 140
v 0.30578 -0.0428141 -0.05
v 0.26375 -0.0398466 -0.05
l 141 142
v 0.26375 -0.0398466 -0.05
v 0.247438 -0.0123483 -0.05
l 143 144
v 0.26375 -0.0398466 -0.05
v 0.261683 -0.0403183 0.0496078
l 145 146
v 0.261683 -0.0403183 0.0496078
v 0.297284 -0.0417335 0.0496078
l 147 148
v 0.247427 -0.0121832 0.0496078
v 0.261683 -0.0403183 0.0496078
l 149 150
v 0.26375 -0.0398466 -0.05
v 0.261683 -0.0403183 0.0496078
l 151 152
v 0.0733144 0.110433 0.0496078
v 0.0918899 0.0831041 0.0496078
l 153 154
v 0.0744419 0.125153 0.0496078
v 0.0733144 0.110433 0.0496078
l 155 156
v 0.0724729 0.110174 -0.05
v 0.0733144 0.110433 0.0496078
l 157 158
v 0.0860443 0.0892837 -0.05
v 0.0724729 0.110174 -0.05
l 159 160
v 0.0724729 0.110174 -0.05
v 0.108391 0.150605 -0.05
l 161 162
v 0.0724729 0.110174 -0.05
v 0.0733144 0.110433 0.0496078
l 163 164
v 0.0724729 0.110174 -0.05
v 0.0744419 0.125153 0.0496078
l 165 166
v 0.0744419 0.125153 0.0496078
v 0.0733144 0.110433 0.0496078
l 167 168
v 0.108925 0.150079 0.0496078
v 0.0744419 0.125153 0.0496078
l 169 170
v 0.0724729 0.110174 -0.05
v 0.0744419 0.125153 0.0496078
l 171 172
v 0.0958558 0.216647 -0.05
v 0.0395327 0.222906 -0.05
l 173 174
v 0.0395327 0.222906 -0.05
v 0.0747635 0.268486 -0.05
l 175 176
v 0.0395327 0.222906 -0.05
v 0.0373446 0.223152 0.0496078
l 177 178
v 0.0373446 0.223152 0.0496078
v 0.0781583 0.218258 0.0496078
l 179 180
v 0.066278 0.261505 0.0496078
v 0.0373446 0.223152 0.0496078
l 181 182
v 0.0395327 0.222906 -0.05
v 0.0373446 0.223152 0.0496078
l 183 184
v 0.09309 0.298574 0.0496078
v 0.0939586 0.273126 0.0496078
l 185 186
v 0.129445 0.293044 0.0496078
v 0.09309 0.298574 0.0496078
l 187 188
v 0.0885084 0.298125 -0.05
v 0.09309 0.298574 0.0496078
l 189 190
v 0.0978801 0.275181 -0.05
v 0.0885084 0.298125 -0.05
l 191 192
v 0.0885084 0.298125 -0.05
v 0.109178 0.300469 -0.05
l 193 194
v 0.0885084 0.298125 -0.05
v 0.09309 0.298574 0.0496078
l 195 196
v 0.187217 0.287243 -0.05
v 0.183436 0.305558 -0.05
l 197 198
v 0.183436 0.305558 -0.05
v 0.199814 0.321819 -0.05
l 199 200
v 0.183436 0.305558 -0.05
v 0.181301 0.305011 0.0496078
l 201 202
v 0.181301 0.305011 0.0496078
v 0.189326 0.294173 0.0496078
l 203 204
v 0.199338 0.319176 0.0496078
v 0.181301 0.305011 0.0496078
l 205 206
v 0.183436 0.305558 -0.05
v 0.181301 0.305011 0.0496078
l 207 208
v 0.145713 0.337369 0.0496078
v 0.167937 0.328014 0.0496078
l 209 210
v 0.14085 0.355608 0.0496078
v 0.145713 0.337369 0.0496078
l 211 212
v 0.14475 0.338408 -0.05
v 0.145713 0.337369 0.0496078
l 213 214
v 0.166362 0.328082 -0.05
v 0.14475 0.338408 -0.05
l 215 216
v 0.14475 0.338408 -0.05
v 0.135452 0.361793 -0.05
l 217 218
v 0.14475 0.338408 -0.05
v 0.145713 0.337369 0.0496078
l 219 220
v 0.108376 0.391528 0.0496078
v 0.14085 0.355608 0.0496078
l 221 222
v 0.115423 0.455537 0.0496078
v 0.108376 0.391528 0.0496078
l 223 224
v 0.107305 0.39699 -0.05
v 0.108376 0.391528 0.0496078
l 225 226
v 0.135452 0.361793 -0.05
v 0.107305 0.39699 -0.05
l 227 228
v 0.107305 0.39699 -0.05
v 0.112886 0.464821 -0.05
l 229 230
v 0.107305 0.39699 -0.05
v 0.108376 0.391528 0.0496078
l 231 232
