# Wavefront OBJ file written 2026-09-28T11:37:38
o donald313_edgeMesh

# points : 187
# lines  : 223

# <points count="187">
v 0.0728445 0.474407 -0.05
v 0.0256277 0.450581 -0.05
v -0.0474693 0.439872 0.0496078
v -0.0729939 0.411929 0.0496078
v -0.0743943 0.411507 -0.05
v -0.104474 0.264982 0.0496078
v -0.149533 0.252673 -0.05
v -0.155902 0.254839 0.0496078
v -0.174113 0.246048 0.0496078
v -0.173479 0.243611 -0.05
v -0.164568 0.231002 0.0496078
v -0.146151 0.11174 0.0496078
v -0.146436 0.112329 -0.05
v -0.171412 0.112683 0.0496078
v -0.171412 0.112683 -0.05
v -0.245727 0.032764 -0.05
v -0.313993 -0.0290518 0.0496078
v -0.319543 -0.0453521 -0.05
v -0.0510075 -0.52576 -0.05
v 0.132121 -0.620296 -0.05
v 0.145531 -0.61678 0.0496078
v 0.251005 -0.531423 0.0496078
v 0.440463 -0.255412 -0.05
v 0.440134 -0.25183 0.0496078
v 0.349855 -0.0574069 0.0496078
v 0.350037 -0.0573982 -0.05
v 0.10237 0.0752747 -0.05
v 0.152597 0.214409 0.0496078
v 0.152232 0.217322 -0.05
v 0.066278 0.261505 0.0496078
v 0.0747635 0.268486 -0.05
v 0.0939586 0.273126 0.0496078
v 0.0978801 0.275181 -0.05
v 0.183181 0.281427 0.0496078
v 0.187217 0.287243 -0.05
v 0.189326 0.294173 0.0496078
v 0.199338 0.319176 0.0496078
v 0.199814 0.321819 -0.05
v 0.112886 0.464821 -0.05
v 0.107806 0.475547 0.0496078
v 0.00918233 0.425923 0.0496078
v 0.00718275 0.422011 -0.05
v -0.051069 0.430461 -0.05
v -0.0518916 0.426043 0.0496078
v -0.0673356 0.39168 -0.05
v -0.0660822 0.387688 0.0496078
v -0.112141 0.246923 -0.05
v -0.120995 0.247805 0.0496078
v -0.0662541 0.190106 0.0496078
v -0.0662541 0.190106 -0.05
v -0.122751 0.0992947 0.0496078
v -0.114722 0.10287 -0.05
v -0.133499 0.0983703 -0.05
v -0.237796 0.0339968 0.0496078
v -0.23402 0.0331993 -0.05
v -0.30399 -0.130648 0.0496078
v -0.305112 -0.130577 -0.05
v -0.0287502 -0.526316 0.0496078
v -0.0170871 -0.528621 -0.05
v 0.231286 -0.532142 -0.05
v 0.238521 -0.525079 0.0496078
v 0.244925 -0.528833 -0.05
v 0.26375 -0.0398466 -0.05
v 0.261683 -0.0403183 0.0496078
v 0.0733144 0.110433 0.0496078
v 0.0724729 0.110174 -0.05
v 0.0744419 0.125153 0.0496078
v 0.0395327 0.222906 -0.05
v 0.0373446 0.223152 0.0496078
v 0.09309 0.298574 0.0496078
v 0.0885084 0.298125 -0.05
v 0.183436 0.305558 -0.05
v 0.181301 0.305011 0.0496078
v 0.145713 0.337369 0.0496078
v 0.14475 0.338408 -0.05
v 0.108376 0.391528 0.0496078
v 0.107305 0.39699 -0.05
v 0.0314158 0.455383 0.0496078
v 0.074855 0.475553 0.0496078
v -0.0138098 0.429854 0.0496078
v -0.0205272 0.432015 -0.05
v -0.0679535 0.398054 0.0496078
v -0.0861701 0.36141 0.0496078
v -0.0883426 0.360706 -0.05
v -0.0954762 0.337411 -0.05
v -0.104043 0.269414 -0.05
v -0.149962 0.219339 -0.05
v -0.108522 0.202838 0.0496078
v -0.101851 0.201814 -0.05
v -0.0837132 0.152588 0.0496078
v -0.0909878 0.139431 -0.05
v -0.0975231 0.128369 0.0496078
v -0.209654 0.0752493 0.0496078
v -0.202264 0.0831064 -0.05
v -0.22907 0.0538104 -0.05
v -0.263809 0.0221607 0.0496078
v -0.279155 0.00858659 -0.05
v -0.320701 -0.0843784 0.0496078
v -0.316958 -0.103734 -0.05
v -0.358845 -0.134208 0.0496078
v -0.380079 -0.13727 -0.05
v -0.427376 -0.148608 0.0496078
v -0.452478 -0.162006 -0.05
v -0.472738 -0.176752 0.0496078
v -0.513895 -0.223947 0.0496078
v -0.51663 -0.22682 -0.05
v -0.530764 -0.267076 0.0496078
v -0.532297 -0.279641 -0.05
v -0.528908 -0.366624 0.0496078
v -0.524269 -0.392772 -0.05
v -0.507696 -0.45053 0.0496078
v -0.507932 -0.451571 -0.05
v -0.489089 -0.476332 0.0496078
v -0.491409 -0.475452 -0.05
v -0.461046 -0.511091 -0.05
v -0.458803 -0.515557 0.0496078
v -0.419828 -0.548183 0.0496078
v -0.397273 -0.56767 -0.05
v -0.380713 -0.581423 0.0496078
v -0.336276 -0.605251 -0.05
v -0.335654 -0.605823 0.0496078
v -0.277108 -0.616811 0.0496078
v -0.273006 -0.616979 -0.05
v -0.209884 -0.603231 0.0496078
v -0.209675 -0.603683 -0.05
v -0.180579 -0.587008 -0.05
v -0.159689 -0.566634 0.0496078
v -0.156425 -0.563332 -0.05
v -0.112755 -0.552225 0.0496078
v -0.0869633 -0.54391 -0.05
v -0.0653857 -0.534317 0.0496078
v 0.0168239 -0.571809 0.0496078
v 0.023693 -0.578129 -0.05
v 0.0472667 -0.599254 0.0496078
v 0.0458707 -0.596831 -0.05
v 0.0867463 -0.615335 0.0496078
v 0.0845908 -0.615344 -0.05
v 0.187434 -0.592462 -0.05
v 0.200076 -0.583252 0.0496078
v 0.212606 -0.571699 -0.05
v 0.222515 -0.549447 0.0496078
v 0.220509 -0.557705 -0.05
v 0.280006 -0.524911 -0.05
v 0.295976 -0.519756 0.0496078
v 0.334509 -0.490588 -0.05
v 0.346315 -0.475829 0.0496078
v 0.372252 -0.423439 -0.05
v 0.373373 -0.421103 0.0496078
v 0.388517 -0.381846 0.0496078
v 0.387673 -0.383594 -0.05
v 0.408575 -0.340322 -0.05
v 0.412678 -0.329191 0.0496078
v 0.425972 -0.299877 -0.05
v 0.431131 -0.293193 0.0496078
v 0.428937 -0.223536 -0.05
v 0.42929 -0.225096 0.0496078
v 0.419288 -0.170765 0.0496078
v 0.41798 -0.161077 -0.05
v 0.396161 -0.110315 0.0496078
v 0.397458 -0.112752 -0.05
v 0.30578 -0.0428141 -0.05
v 0.297284 -0.0417335 0.0496078
v 0.247427 -0.0121832 0.0496078
v 0.247438 -0.0123483 -0.05
v 0.236193 0.00756122 0.0496078
v 0.234076 0.00913748 -0.05
v 0.204791 0.0414033 0.0496078
v 0.204278 0.0418526 -0.05
v 0.165419 0.066269 0.0496078
v 0.159376 0.0671704 -0.05
v 0.112575 0.0721137 0.0496078
v 0.0918899 0.0831041 0.0496078
v 0.0860443 0.0892837 -0.05
v 0.108391 0.150605 -0.05
v 0.108925 0.150079 0.0496078
v 0.144389 0.190831 0.0496078
v 0.146134 0.193866 -0.05
v 0.0781583 0.218258 0.0496078
v 0.0958558 0.216647 -0.05
v 0.109178 0.300469 -0.05
v 0.129445 0.293044 0.0496078
v 0.147558 0.286713 -0.05
v 0.167937 0.328014 0.0496078
v 0.166362 0.328082 -0.05
v 0.14085 0.355608 0.0496078
v 0.135452 0.361793 -0.05
v 0.115423 0.455537 0.0496078
# </points>

# <edges count="223">
l 78 79
l 1 2
l 41 78
l 2 42
l 80 41
l 42 81
l 3 80
l 43 3
l 81 43
l 44 3
l 4 44
l 5 4
l 43 5
l 82 4
l 5 45
l 46 82
l 83 46
l 45 84
l 84 85
l 6 83
l 85 86
l 86 47
l 48 6
l 47 7
l 7 8
l 8 48
l 9 8
l 10 9
l 7 10
l 11 9
l 10 87
l 88 11
l 87 89
l 49 88
l 89 50
l 90 49
l 50 91
l 92 90
l 51 92
l 91 52
l 52 53
l 12 51
l 13 12
l 53 13
l 14 12
l 15 14
l 13 15
l 93 14
l 15 94
l 94 95
l 54 93
l 95 55
l 55 16
l 96 54
l 16 97
l 17 96
l 18 17
l 97 18
l 98 17
l 18 99
l 56 98
l 99 57
l 100 56
l 57 101
l 102 100
l 101 103
l 104 102
l 105 104
l 103 106
l 107 105
l 106 108
l 109 107
l 108 110
l 111 109
l 110 112
l 113 111
l 112 114
l 114 115
l 116 113
l 117 116
l 115 118
l 119 117
l 118 120
l 121 119
l 122 121
l 120 123
l 124 122
l 123 125
l 125 126
l 127 124
l 126 128
l 129 127
l 128 130
l 131 129
l 130 19
l 58 131
l 19 59
l 132 58
l 59 133
l 134 132
l 133 135
l 136 134
l 135 137
l 137 20
l 21 136
l 20 138
l 139 21
l 138 140
l 141 139
l 140 142
l 142 60
l 61 141
l 60 62
l 62 22
l 22 61
l 62 143
l 144 22
l 143 145
l 146 144
l 145 147
l 148 146
l 149 148
l 147 150
l 150 151
l 152 149
l 151 153
l 154 152
l 153 23
l 23 24
l 24 154
l 23 155
l 156 24
l 157 156
l 155 158
l 159 157
l 158 160
l 25 159
l 26 25
l 160 26
l 26 161
l 162 25
l 161 63
l 64 162
l 163 64
l 63 164
l 165 163
l 164 166
l 167 165
l 166 168
l 169 167
l 168 170
l 171 169
l 170 27
l 172 171
l 27 173
l 65 172
l 173 66
l 67 65
l 66 174
l 175 67
l 176 175
l 174 177
l 28 176
l 29 28
l 177 29
l 178 28
l 29 179
l 179 68
l 69 178
l 30 69
l 68 31
l 32 30
l 33 32
l 31 33
l 70 32
l 33 71
l 71 180
l 181 70
l 180 182
l 34 181
l 35 34
l 182 35
l 35 36
l 36 34
l 35 72
l 73 36
l 37 73
l 38 37
l 72 38
l 183 37
l 38 184
l 74 183
l 184 75
l 185 74
l 75 186
l 76 185
l 186 77
l 187 76
l 77 39
l 39 40
l 40 187
l 39 1
l 79 40
l 42 41
l 43 44
l 45 46
l 47 48
l 50 49
l 52 51
l 53 51
l 55 54
l 57 56
l 59 58
l 60 61
l 62 61
l 63 64
l 66 65
l 66 67
l 68 69
l 71 70
l 72 73
l 75 74
l 77 76
# </edges>
